<svg xmlns="http://www.w3.org/2000/svg" xmlns:xlink="http://www.w3.org/1999/xlink" width="49" height="29" version="1.1" viewBox="0 0 49 29"><title>upload</title><desc>Created with Sketch.</desc><g id="Page-1" fill="none" fill-rule="evenodd" stroke="none" stroke-width="1"><g id="Day-15" fill="#BDBDBD" transform="translate(-176.000000, -182.000000)"><path id="upload" d="M202.909776,210.133301 L216.53798,210.133301 C221.11008,210.133301 224.819551,206.428681 224.819551,201.858801 C224.819551,197.866306 221.977952,194.522682 218.20137,193.751638 C216.450721,189.293467 212.108635,186.13725 207.029376,186.13725 C205.983811,186.13725 204.969483,186.270992 204.002566,186.522302 C201.804221,183.766164 198.417178,182 194.617626,182 C188.073986,182 182.753857,187.238474 182.622102,193.750559 C178.844617,194.518629 176,197.856951 176,201.858801 C176,206.419382 179.707786,210.133301 184.281571,210.133301 L197.909776,210.133301 L197.909776,201.633301 L192.631601,201.633301 L200.409776,193.855126 L208.18795,201.633301 L202.909776,201.633301 L202.909776,210.133301 Z"/></g></g></svg>